<?xml version="1.0" encoding="iso-8859-1"?>
<!-- Generator: Adobe Illustrator 19.0.0, SVG Export Plug-In . SVG Version: 6.00 Build 0)  -->
<svg version="1.1" id="Layer_1" xmlns="http://www.w3.org/2000/svg" xmlns:xlink="http://www.w3.org/1999/xlink" x="0px" y="0px"
	 viewBox="0 0 512 512" style="enable-background:new 0 0 512 512;" xml:space="preserve">
<g>
	<g>
		<g>
			<path d="M409.6,324.267c9.412,0,17.067,7.654,17.067,17.067c0,4.71,3.814,8.533,8.533,8.533s8.533-3.823,8.533-8.533
				c0-15.855-10.914-29.107-25.6-32.922V307.2c0-4.71-3.814-8.533-8.533-8.533s-8.533,3.823-8.533,8.533v1.212
				c-14.686,3.814-25.6,17.067-25.6,32.922c0,18.825,15.309,34.133,34.133,34.133c9.412,0,17.067,7.654,17.067,17.067
				c0,9.412-7.654,17.067-17.067,17.067c-9.412,0-17.067-7.654-17.067-17.067c0-4.71-3.814-8.533-8.533-8.533
				c-4.719,0-8.533,3.823-8.533,8.533c0,15.855,10.914,29.107,25.6,32.922v1.212c0,4.71,3.814,8.533,8.533,8.533
				s8.533-3.823,8.533-8.533v-1.212c14.686-3.814,25.6-17.067,25.6-32.922c0-18.825-15.309-34.133-34.133-34.133
				c-9.412,0-17.067-7.654-17.067-17.067C392.533,331.921,400.188,324.267,409.6,324.267z"/>
			<path d="M401.067,187.733c4.719,0,8.533-3.823,8.533-8.533s-3.814-8.533-8.533-8.533h-51.2c-4.719,0-8.533,3.823-8.533,8.533
				s3.814,8.533,8.533,8.533H401.067z"/>
			<path d="M341.333,366.933c0-4.71-3.814-8.533-8.533-8.533H256c-4.71,0-8.533,3.823-8.533,8.533s3.823,8.533,8.533,8.533h76.8
				C337.519,375.467,341.333,371.644,341.333,366.933z"/>
			<path d="M213.333,187.733h102.4c4.719,0,8.533-3.823,8.533-8.533s-3.814-8.533-8.533-8.533h-102.4
				c-4.71,0-8.533,3.823-8.533,8.533S208.623,187.733,213.333,187.733z"/>
			<path d="M469.333,68.267H170.667c-4.71,0-8.533,3.823-8.533,8.533s3.823,8.533,8.533,8.533h298.667
				c14.114,0,25.6,11.486,25.6,25.6v384H153.6v-384c0-23.526-19.14-42.667-42.667-42.667c-23.526,0-42.667,19.14-42.667,42.667
				v290.133c0,14.114-11.486,25.6-25.6,25.6s-25.6-11.486-25.6-25.6v-384H358.4v25.6c0,4.71,3.814,8.533,8.533,8.533
				s8.533-3.823,8.533-8.533V8.533c0-4.71-3.814-8.533-8.533-8.533H8.533C3.823,0,0,3.823,0,8.533v392.533
				c0,23.526,19.14,42.667,42.667,42.667c23.526,0,42.667-19.14,42.667-42.667V110.933c0-14.114,11.486-25.6,25.6-25.6
				s25.6,11.486,25.6,25.6v315.733H93.867c-4.71,0-8.533,3.823-8.533,8.533s3.823,8.533,8.533,8.533h42.667v59.733
				c0,4.71,3.823,8.533,8.533,8.533h358.4c4.719,0,8.533-3.823,8.533-8.533V110.933C512,87.407,492.86,68.267,469.333,68.267z"/>
			<path d="M213.333,238.933H435.2c4.719,0,8.533-3.823,8.533-8.533s-3.814-8.533-8.533-8.533H213.333
				c-4.71,0-8.533,3.823-8.533,8.533S208.623,238.933,213.333,238.933z"/>
			<path d="M256,409.6c-4.71,0-8.533,3.823-8.533,8.533s3.823,8.533,8.533,8.533h68.267c4.719,0,8.533-3.823,8.533-8.533
				s-3.814-8.533-8.533-8.533H256z"/>
			<path d="M213.333,426.667h8.533c4.71,0,8.533-3.823,8.533-8.533s-3.823-8.533-8.533-8.533h-8.533
				c-4.71,0-8.533,3.823-8.533,8.533S208.623,426.667,213.333,426.667z"/>
			<path d="M213.333,375.467h8.533c4.71,0,8.533-3.823,8.533-8.533s-3.823-8.533-8.533-8.533h-8.533
				c-4.71,0-8.533,3.823-8.533,8.533S208.623,375.467,213.333,375.467z"/>
			<path d="M256,324.267h59.733c4.719,0,8.533-3.823,8.533-8.533s-3.814-8.533-8.533-8.533H256c-4.71,0-8.533,3.823-8.533,8.533
				S251.29,324.267,256,324.267z"/>
			<path d="M213.333,324.267h8.533c4.71,0,8.533-3.823,8.533-8.533s-3.823-8.533-8.533-8.533h-8.533
				c-4.71,0-8.533,3.823-8.533,8.533S208.623,324.267,213.333,324.267z"/>
		</g>
	</g>
</g>
<g>
</g>
<g>
</g>
<g>
</g>
<g>
</g>
<g>
</g>
<g>
</g>
<g>
</g>
<g>
</g>
<g>
</g>
<g>
</g>
<g>
</g>
<g>
</g>
<g>
</g>
<g>
</g>
<g>
</g>
</svg>
